<mxfile host="app.diagrams.net" modified="2023-12-01T10:51:23.854Z" agent="Mozilla/5.0 (Windows NT 10.0; Win64; x64) AppleWebKit/537.36 (KHTML, like Gecko) Chrome/119.0.0.0 Safari/537.36" etag="9ohQB9xBPND43A4Bn0Uy" version="22.1.5" type="github">
  <diagram name="Page-1" id="e7e014a7-5840-1c2e-5031-d8a46d1fe8dd">
    <mxGraphModel dx="1167" dy="631" grid="1" gridSize="10" guides="1" tooltips="1" connect="1" arrows="1" fold="1" page="1" pageScale="1" pageWidth="1169" pageHeight="826" background="none" math="0" shadow="0">
      <root>
        <mxCell id="0" />
        <mxCell id="1" parent="0" />
        <mxCell id="2" value="Pedestrian" style="swimlane;whiteSpace=wrap" parent="1" vertex="1">
          <mxGeometry x="160" y="128" width="370" height="822" as="geometry" />
        </mxCell>
        <mxCell id="5" value="" style="ellipse;shape=startState;fillColor=#000000;strokeColor=#ff0000;" parent="2" vertex="1">
          <mxGeometry x="125" y="40" width="30" height="30" as="geometry" />
        </mxCell>
        <mxCell id="6" value="" style="edgeStyle=elbowEdgeStyle;elbow=horizontal;verticalAlign=bottom;endArrow=open;endSize=8;strokeColor=#FF0000;endFill=1;rounded=0" parent="2" target="7" edge="1">
          <mxGeometry x="100" y="40" as="geometry">
            <mxPoint x="140" y="110" as="targetPoint" />
            <mxPoint x="140" y="70" as="sourcePoint" />
          </mxGeometry>
        </mxCell>
        <mxCell id="7" value="Press Start Button" style="" parent="2" vertex="1">
          <mxGeometry x="85" y="110" width="110" height="50" as="geometry" />
        </mxCell>
        <mxCell id="8" value="Selects Cup Size" style="" parent="2" vertex="1">
          <mxGeometry x="85" y="220" width="110" height="50" as="geometry" />
        </mxCell>
        <mxCell id="9" value="" style="endArrow=open;strokeColor=#FF0000;endFill=1;rounded=0" parent="2" source="7" target="8" edge="1">
          <mxGeometry relative="1" as="geometry" />
        </mxCell>
        <mxCell id="X4tOk5pN0bTZF50LvccF-47" value="Selects Tea" style="" vertex="1" parent="2">
          <mxGeometry x="5.5" y="362" width="110" height="50" as="geometry" />
        </mxCell>
        <mxCell id="X4tOk5pN0bTZF50LvccF-48" value="Selects Coffee" style="" vertex="1" parent="2">
          <mxGeometry x="165.5" y="362" width="110" height="50" as="geometry" />
        </mxCell>
        <mxCell id="X4tOk5pN0bTZF50LvccF-54" value="Pay for Drink" style="" vertex="1" parent="2">
          <mxGeometry x="250" y="752" width="110" height="50" as="geometry" />
        </mxCell>
        <mxCell id="X4tOk5pN0bTZF50LvccF-103" value="" style="endArrow=none;html=1;rounded=0;exitX=0.5;exitY=1;exitDx=0;exitDy=0;fillColor=#f8cecc;strokeColor=#b85450;" edge="1" parent="2" source="X4tOk5pN0bTZF50LvccF-89">
          <mxGeometry width="50" height="50" relative="1" as="geometry">
            <mxPoint x="70" y="572" as="sourcePoint" />
            <mxPoint x="185" y="592" as="targetPoint" />
            <Array as="points">
              <mxPoint x="65" y="592" />
            </Array>
          </mxGeometry>
        </mxCell>
        <mxCell id="3" value="Vending Machine" style="swimlane;whiteSpace=wrap" parent="1" vertex="1">
          <mxGeometry x="530" y="128" width="324.5" height="822" as="geometry" />
        </mxCell>
        <mxCell id="21" value="" style="rhombus;fillColor=#ffffc0;strokeColor=#ff0000;" parent="3" vertex="1">
          <mxGeometry x="32.5" y="212" width="67.5" height="65" as="geometry" />
        </mxCell>
        <mxCell id="X4tOk5pN0bTZF50LvccF-43" value="" style="ellipse;shape=startState;fillColor=#000000;strokeColor=#ff0000;" vertex="1" parent="3">
          <mxGeometry x="280" y="762" width="30" height="30" as="geometry" />
        </mxCell>
        <mxCell id="X4tOk5pN0bTZF50LvccF-44" value="Issue Receipt" style="" vertex="1" parent="3">
          <mxGeometry x="107.25" y="752" width="110" height="50" as="geometry" />
        </mxCell>
        <mxCell id="X4tOk5pN0bTZF50LvccF-45" value="" style="endArrow=classic;html=1;rounded=0;exitX=1;exitY=0.5;exitDx=0;exitDy=0;entryX=0;entryY=0.5;entryDx=0;entryDy=0;fillColor=#f8cecc;strokeColor=#b85450;" edge="1" parent="3" source="X4tOk5pN0bTZF50LvccF-44" target="X4tOk5pN0bTZF50LvccF-43">
          <mxGeometry width="50" height="50" relative="1" as="geometry">
            <mxPoint x="-20" y="612" as="sourcePoint" />
            <mxPoint x="30" y="562" as="targetPoint" />
          </mxGeometry>
        </mxCell>
        <mxCell id="X4tOk5pN0bTZF50LvccF-57" value="queue requests" style="" vertex="1" parent="3">
          <mxGeometry x="110" y="272" width="110" height="50" as="geometry" />
        </mxCell>
        <mxCell id="X4tOk5pN0bTZF50LvccF-58" value="" style="endArrow=open;strokeColor=#FF0000;endFill=1;rounded=0;entryX=0.5;entryY=0;entryDx=0;entryDy=0;exitX=1;exitY=0.5;exitDx=0;exitDy=0;" edge="1" parent="3" source="21" target="X4tOk5pN0bTZF50LvccF-57">
          <mxGeometry relative="1" as="geometry">
            <mxPoint x="-165" y="255" as="sourcePoint" />
            <mxPoint x="43" y="255" as="targetPoint" />
            <Array as="points">
              <mxPoint x="165" y="245" />
            </Array>
          </mxGeometry>
        </mxCell>
        <mxCell id="X4tOk5pN0bTZF50LvccF-60" value="big" style="edgeLabel;html=1;align=center;verticalAlign=middle;resizable=0;points=[];" vertex="1" connectable="0" parent="X4tOk5pN0bTZF50LvccF-58">
          <mxGeometry x="-0.1875" relative="1" as="geometry">
            <mxPoint x="1" as="offset" />
          </mxGeometry>
        </mxCell>
        <mxCell id="X4tOk5pN0bTZF50LvccF-59" value="" style="endArrow=open;strokeColor=#FF0000;endFill=1;rounded=0;entryX=0;entryY=0.5;entryDx=0;entryDy=0;exitX=0.5;exitY=1;exitDx=0;exitDy=0;" edge="1" parent="3" source="21" target="X4tOk5pN0bTZF50LvccF-57">
          <mxGeometry relative="1" as="geometry">
            <mxPoint x="160" y="255" as="sourcePoint" />
            <mxPoint x="225" y="302" as="targetPoint" />
            <Array as="points">
              <mxPoint x="66" y="297" />
            </Array>
          </mxGeometry>
        </mxCell>
        <mxCell id="X4tOk5pN0bTZF50LvccF-61" value="small" style="edgeLabel;html=1;align=center;verticalAlign=middle;resizable=0;points=[];" vertex="1" connectable="0" parent="X4tOk5pN0bTZF50LvccF-59">
          <mxGeometry x="-0.5414" y="1" relative="1" as="geometry">
            <mxPoint as="offset" />
          </mxGeometry>
        </mxCell>
        <mxCell id="X4tOk5pN0bTZF50LvccF-66" value="" style="rhombus;fillColor=#ffffc0;strokeColor=#ff0000;" vertex="1" parent="3">
          <mxGeometry x="32.5" y="352" width="67.5" height="65" as="geometry" />
        </mxCell>
        <mxCell id="X4tOk5pN0bTZF50LvccF-67" value="queue requests" style="" vertex="1" parent="3">
          <mxGeometry x="200" y="589" width="110" height="50" as="geometry" />
        </mxCell>
        <mxCell id="X4tOk5pN0bTZF50LvccF-79" value="" style="rhombus;fillColor=#ffffc0;strokeColor=#ff0000;" vertex="1" parent="3">
          <mxGeometry x="32.5" y="559" width="67.5" height="65" as="geometry" />
        </mxCell>
        <mxCell id="X4tOk5pN0bTZF50LvccF-80" value="" style="endArrow=open;strokeColor=#FF0000;endFill=1;rounded=0;entryX=0.5;entryY=0;entryDx=0;entryDy=0;exitX=1;exitY=0.5;exitDx=0;exitDy=0;" edge="1" parent="3" source="X4tOk5pN0bTZF50LvccF-66" target="X4tOk5pN0bTZF50LvccF-67">
          <mxGeometry relative="1" as="geometry">
            <mxPoint x="-165" y="255" as="sourcePoint" />
            <mxPoint x="43" y="255" as="targetPoint" />
            <Array as="points">
              <mxPoint x="255" y="385" />
            </Array>
          </mxGeometry>
        </mxCell>
        <mxCell id="X4tOk5pN0bTZF50LvccF-81" value="tea" style="edgeLabel;html=1;align=center;verticalAlign=middle;resizable=0;points=[];" vertex="1" connectable="0" parent="X4tOk5pN0bTZF50LvccF-80">
          <mxGeometry x="-0.326" y="-2" relative="1" as="geometry">
            <mxPoint as="offset" />
          </mxGeometry>
        </mxCell>
        <mxCell id="X4tOk5pN0bTZF50LvccF-83" value="" style="endArrow=open;strokeColor=#FF0000;endFill=1;rounded=0;entryX=0;entryY=0;entryDx=0;entryDy=0;exitX=0.5;exitY=0;exitDx=0;exitDy=0;" edge="1" parent="3" source="X4tOk5pN0bTZF50LvccF-79" target="X4tOk5pN0bTZF50LvccF-67">
          <mxGeometry relative="1" as="geometry">
            <mxPoint x="30" y="479" as="sourcePoint" />
            <mxPoint x="238" y="479" as="targetPoint" />
            <Array as="points">
              <mxPoint x="200" y="559" />
            </Array>
          </mxGeometry>
        </mxCell>
        <mxCell id="X4tOk5pN0bTZF50LvccF-86" value="sugar" style="edgeLabel;html=1;align=center;verticalAlign=middle;resizable=0;points=[];" vertex="1" connectable="0" parent="X4tOk5pN0bTZF50LvccF-83">
          <mxGeometry x="-0.1692" y="1" relative="1" as="geometry">
            <mxPoint as="offset" />
          </mxGeometry>
        </mxCell>
        <mxCell id="X4tOk5pN0bTZF50LvccF-85" value="" style="endArrow=open;strokeColor=#FF0000;endFill=1;rounded=0;entryX=0;entryY=1;entryDx=0;entryDy=0;exitX=0.5;exitY=1;exitDx=0;exitDy=0;" edge="1" parent="3" source="X4tOk5pN0bTZF50LvccF-79" target="X4tOk5pN0bTZF50LvccF-67">
          <mxGeometry relative="1" as="geometry">
            <mxPoint x="110" y="537" as="sourcePoint" />
            <mxPoint x="210" y="544" as="targetPoint" />
            <Array as="points">
              <mxPoint x="66" y="639" />
            </Array>
          </mxGeometry>
        </mxCell>
        <mxCell id="X4tOk5pN0bTZF50LvccF-87" value="milk" style="edgeLabel;html=1;align=center;verticalAlign=middle;resizable=0;points=[];" vertex="1" connectable="0" parent="X4tOk5pN0bTZF50LvccF-85">
          <mxGeometry x="-0.0677" y="1" relative="1" as="geometry">
            <mxPoint as="offset" />
          </mxGeometry>
        </mxCell>
        <mxCell id="X4tOk5pN0bTZF50LvccF-52" value="Selects Sugar" style="" vertex="1" parent="3">
          <mxGeometry x="-240.5" y="522" width="110" height="50" as="geometry" />
        </mxCell>
        <mxCell id="X4tOk5pN0bTZF50LvccF-53" value="Selects Milk" style="" vertex="1" parent="3">
          <mxGeometry x="-125.5" y="522" width="110" height="50" as="geometry" />
        </mxCell>
        <mxCell id="X4tOk5pN0bTZF50LvccF-89" value="Selects None" style="" vertex="1" parent="3">
          <mxGeometry x="-360" y="522" width="110" height="50" as="geometry" />
        </mxCell>
        <mxCell id="X4tOk5pN0bTZF50LvccF-88" value="ask if add sugar/milk" style="" vertex="1" parent="3">
          <mxGeometry x="84.5" y="462" width="110" height="50" as="geometry" />
        </mxCell>
        <mxCell id="X4tOk5pN0bTZF50LvccF-90" value="" style="endArrow=open;strokeColor=#FF0000;endFill=1;rounded=0;entryX=0.5;entryY=0;entryDx=0;entryDy=0;exitX=0;exitY=0.5;exitDx=0;exitDy=0;" edge="1" parent="3" source="X4tOk5pN0bTZF50LvccF-88" target="X4tOk5pN0bTZF50LvccF-89">
          <mxGeometry relative="1" as="geometry">
            <mxPoint x="129.5" y="462" as="sourcePoint" />
            <mxPoint x="-344.5" y="502" as="targetPoint" />
            <Array as="points">
              <mxPoint x="-304.5" y="487" />
            </Array>
          </mxGeometry>
        </mxCell>
        <mxCell id="X4tOk5pN0bTZF50LvccF-91" value="" style="endArrow=open;strokeColor=#FF0000;endFill=1;rounded=0;entryX=0.5;entryY=0;entryDx=0;entryDy=0;exitX=0;exitY=0.5;exitDx=0;exitDy=0;" edge="1" parent="3" source="X4tOk5pN0bTZF50LvccF-88" target="X4tOk5pN0bTZF50LvccF-52">
          <mxGeometry relative="1" as="geometry">
            <mxPoint x="94.5" y="497" as="sourcePoint" />
            <mxPoint x="-294.5" y="532" as="targetPoint" />
            <Array as="points">
              <mxPoint x="-185.5" y="487" />
            </Array>
          </mxGeometry>
        </mxCell>
        <mxCell id="X4tOk5pN0bTZF50LvccF-92" value="" style="endArrow=open;strokeColor=#FF0000;endFill=1;rounded=0;entryX=0.5;entryY=0;entryDx=0;entryDy=0;exitX=0;exitY=0.5;exitDx=0;exitDy=0;" edge="1" parent="3" source="X4tOk5pN0bTZF50LvccF-88" target="X4tOk5pN0bTZF50LvccF-53">
          <mxGeometry relative="1" as="geometry">
            <mxPoint x="94.5" y="497" as="sourcePoint" />
            <mxPoint x="-175.5" y="532" as="targetPoint" />
            <Array as="points">
              <mxPoint x="-70.5" y="487" />
            </Array>
          </mxGeometry>
        </mxCell>
        <mxCell id="X4tOk5pN0bTZF50LvccF-96" value="" style="endArrow=open;strokeColor=#FF0000;endFill=1;rounded=0;exitX=0.5;exitY=1;exitDx=0;exitDy=0;entryX=0.5;entryY=0;entryDx=0;entryDy=0;" edge="1" parent="3" source="X4tOk5pN0bTZF50LvccF-66" target="X4tOk5pN0bTZF50LvccF-88">
          <mxGeometry relative="1" as="geometry">
            <mxPoint x="-210" y="180" as="sourcePoint" />
            <mxPoint x="-210" y="240" as="targetPoint" />
          </mxGeometry>
        </mxCell>
        <mxCell id="X4tOk5pN0bTZF50LvccF-97" value="coffee" style="edgeLabel;html=1;align=center;verticalAlign=middle;resizable=0;points=[];" vertex="1" connectable="0" parent="X4tOk5pN0bTZF50LvccF-96">
          <mxGeometry x="-0.296" y="-5" relative="1" as="geometry">
            <mxPoint as="offset" />
          </mxGeometry>
        </mxCell>
        <mxCell id="X4tOk5pN0bTZF50LvccF-98" value="" style="endArrow=open;strokeColor=#FF0000;endFill=1;rounded=0;entryX=0;entryY=0.5;entryDx=0;entryDy=0;" edge="1" parent="3" target="X4tOk5pN0bTZF50LvccF-67">
          <mxGeometry relative="1" as="geometry">
            <mxPoint x="100" y="589" as="sourcePoint" />
            <mxPoint x="100" y="649" as="targetPoint" />
          </mxGeometry>
        </mxCell>
        <mxCell id="X4tOk5pN0bTZF50LvccF-99" value="none" style="edgeLabel;html=1;align=center;verticalAlign=middle;resizable=0;points=[];" vertex="1" connectable="0" parent="X4tOk5pN0bTZF50LvccF-98">
          <mxGeometry x="-0.3487" relative="1" as="geometry">
            <mxPoint as="offset" />
          </mxGeometry>
        </mxCell>
        <mxCell id="X4tOk5pN0bTZF50LvccF-100" value="" style="endArrow=open;strokeColor=#FF0000;endFill=1;rounded=0;entryX=0;entryY=0.5;entryDx=0;entryDy=0;exitX=0.5;exitY=1;exitDx=0;exitDy=0;" edge="1" parent="3" source="X4tOk5pN0bTZF50LvccF-53" target="X4tOk5pN0bTZF50LvccF-79">
          <mxGeometry relative="1" as="geometry">
            <mxPoint x="95" y="497" as="sourcePoint" />
            <mxPoint x="-60" y="532" as="targetPoint" />
            <Array as="points">
              <mxPoint x="-70" y="592" />
            </Array>
          </mxGeometry>
        </mxCell>
        <mxCell id="X4tOk5pN0bTZF50LvccF-104" value="Issue payment" style="" vertex="1" parent="3">
          <mxGeometry x="11.25" y="672" width="110" height="50" as="geometry" />
        </mxCell>
        <mxCell id="X4tOk5pN0bTZF50LvccF-105" value="" style="endArrow=classic;html=1;rounded=0;exitX=0.5;exitY=1;exitDx=0;exitDy=0;entryX=1;entryY=0.5;entryDx=0;entryDy=0;fillColor=#f8cecc;strokeColor=#b85450;" edge="1" parent="3" source="X4tOk5pN0bTZF50LvccF-67" target="X4tOk5pN0bTZF50LvccF-104">
          <mxGeometry width="50" height="50" relative="1" as="geometry">
            <mxPoint x="-40" y="562" as="sourcePoint" />
            <mxPoint x="10" y="512" as="targetPoint" />
            <Array as="points">
              <mxPoint x="255" y="697" />
            </Array>
          </mxGeometry>
        </mxCell>
        <mxCell id="25" value="" style="shape=line;strokeWidth=6;strokeColor=#ff0000;rotation=90" parent="1" vertex="1">
          <mxGeometry x="940" y="220" width="50" height="15" as="geometry" />
        </mxCell>
        <mxCell id="18" value="command queue" style="" parent="1" vertex="1">
          <mxGeometry x="880" y="500" width="110" height="50" as="geometry" />
        </mxCell>
        <mxCell id="11" value="" style="endArrow=open;strokeColor=#FF0000;endFill=1;rounded=0;entryX=0;entryY=0.5;entryDx=0;entryDy=0;" parent="1" source="8" target="21" edge="1">
          <mxGeometry relative="1" as="geometry">
            <mxPoint x="475.5" y="373" as="targetPoint" />
          </mxGeometry>
        </mxCell>
        <mxCell id="X4tOk5pN0bTZF50LvccF-62" value="" style="endArrow=open;strokeColor=#FF0000;endFill=1;rounded=0;entryX=0.5;entryY=0;entryDx=0;entryDy=0;exitX=0.5;exitY=1;exitDx=0;exitDy=0;" edge="1" parent="1" source="X4tOk5pN0bTZF50LvccF-57" target="X4tOk5pN0bTZF50LvccF-48">
          <mxGeometry relative="1" as="geometry">
            <mxPoint x="365" y="383" as="sourcePoint" />
            <mxPoint x="573" y="383" as="targetPoint" />
            <Array as="points">
              <mxPoint x="695" y="470" />
              <mxPoint x="380" y="470" />
            </Array>
          </mxGeometry>
        </mxCell>
        <mxCell id="X4tOk5pN0bTZF50LvccF-64" value="" style="endArrow=open;strokeColor=#FF0000;endFill=1;rounded=0;entryX=0.5;entryY=0;entryDx=0;entryDy=0;exitX=0.5;exitY=1;exitDx=0;exitDy=0;" edge="1" parent="1" source="X4tOk5pN0bTZF50LvccF-57" target="X4tOk5pN0bTZF50LvccF-47">
          <mxGeometry relative="1" as="geometry">
            <mxPoint x="715" y="470" as="sourcePoint" />
            <mxPoint x="401" y="510" as="targetPoint" />
            <Array as="points">
              <mxPoint x="695" y="470" />
              <mxPoint x="220" y="470" />
            </Array>
          </mxGeometry>
        </mxCell>
        <mxCell id="X4tOk5pN0bTZF50LvccF-93" value="" style="endArrow=open;strokeColor=#FF0000;endFill=1;rounded=0;entryX=0;entryY=0.5;entryDx=0;entryDy=0;exitX=0.5;exitY=1;exitDx=0;exitDy=0;" edge="1" parent="1" source="X4tOk5pN0bTZF50LvccF-47" target="X4tOk5pN0bTZF50LvccF-66">
          <mxGeometry relative="1" as="geometry">
            <mxPoint x="630" y="605" as="sourcePoint" />
            <mxPoint x="360" y="640" as="targetPoint" />
            <Array as="points">
              <mxPoint x="221" y="560" />
              <mxPoint x="520" y="560" />
              <mxPoint x="520" y="513" />
            </Array>
          </mxGeometry>
        </mxCell>
        <mxCell id="X4tOk5pN0bTZF50LvccF-95" value="" style="endArrow=none;html=1;rounded=0;entryX=0.5;entryY=1;entryDx=0;entryDy=0;fillColor=#f8cecc;strokeColor=#b85450;" edge="1" parent="1" target="X4tOk5pN0bTZF50LvccF-48">
          <mxGeometry width="50" height="50" relative="1" as="geometry">
            <mxPoint x="380" y="560" as="sourcePoint" />
            <mxPoint x="630" y="540" as="targetPoint" />
          </mxGeometry>
        </mxCell>
        <mxCell id="X4tOk5pN0bTZF50LvccF-102" value="" style="endArrow=none;html=1;rounded=0;exitX=0.5;exitY=1;exitDx=0;exitDy=0;fillColor=#f8cecc;strokeColor=#b85450;" edge="1" parent="1" source="X4tOk5pN0bTZF50LvccF-52">
          <mxGeometry width="50" height="50" relative="1" as="geometry">
            <mxPoint x="350" y="750" as="sourcePoint" />
            <mxPoint x="460" y="720" as="targetPoint" />
            <Array as="points">
              <mxPoint x="345" y="720" />
            </Array>
          </mxGeometry>
        </mxCell>
        <mxCell id="X4tOk5pN0bTZF50LvccF-106" value="" style="endArrow=classic;html=1;rounded=0;exitX=0;exitY=0.5;exitDx=0;exitDy=0;entryX=0.5;entryY=0;entryDx=0;entryDy=0;fillColor=#f8cecc;strokeColor=#b85450;" edge="1" parent="1" source="X4tOk5pN0bTZF50LvccF-104" target="X4tOk5pN0bTZF50LvccF-54">
          <mxGeometry width="50" height="50" relative="1" as="geometry">
            <mxPoint x="484" y="760" as="sourcePoint" />
            <mxPoint x="350" y="818" as="targetPoint" />
            <Array as="points">
              <mxPoint x="465" y="825" />
            </Array>
          </mxGeometry>
        </mxCell>
        <mxCell id="X4tOk5pN0bTZF50LvccF-107" value="" style="endArrow=classic;html=1;rounded=0;exitX=1;exitY=0.5;exitDx=0;exitDy=0;entryX=0;entryY=0.5;entryDx=0;entryDy=0;fillColor=#f8cecc;strokeColor=#b85450;" edge="1" parent="1" source="X4tOk5pN0bTZF50LvccF-54" target="X4tOk5pN0bTZF50LvccF-44">
          <mxGeometry width="50" height="50" relative="1" as="geometry">
            <mxPoint x="551" y="835" as="sourcePoint" />
            <mxPoint x="475" y="890" as="targetPoint" />
            <Array as="points" />
          </mxGeometry>
        </mxCell>
      </root>
    </mxGraphModel>
  </diagram>
</mxfile>
